<?xml version="1.0" encoding="UTF-8"?><svg id="b" xmlns="http://www.w3.org/2000/svg" viewBox="0 0 400 354.5"><g id="c"><path d="m327.65,83.48c-4.5-8.49-15.51-9.78-21.14-.85l-108.67,176.33c-12.8,20.1-39.49,18.86-51.82-.6L46.89,104.52c-16.08-24.72-32.48-20.01-32.48-20.01C1.29,115.8-3.03,158.54,2.11,195.03c14.14,100.98,101.4,171.6,195.47,157.74,94.09-13.86,162.57-110.28,147.35-213.21-3.61-30.55-14.41-51.02-17.27-56.08" style="fill:#e73137; stroke-width:0px;"/><path d="m349.51,13.18l-20.2,32.77c-4.16,6.7,1.77,16.64,10.68,15.01l36.88-6.81c22.5-4.18,28.46-27.73,18.43-42.42-10.27-15.05-34.62-16.7-45.79,1.46" style="fill:#e73137; stroke-width:0px;"/><path d="m157.19,204.39c7.61,12.76,23.59,12.96,31.09-.46l67.83-116.57c4.39-9.16.92-22.18-11.64-24.78l-157.47-29.46c-14.16-2.61-24.83,12.45-17.94,25.56l88.12,145.72Z" style="fill:#e73137; stroke-width:0px;"/></g></svg>